<?xml version="1.0" encoding="UTF-8" standalone="no"?>
<!DOCTYPE svg PUBLIC "-//W3C//DTD SVG 1.1//EN" "http://www.w3.org/Graphics/SVG/1.1/DTD/svg11.dtd">
<svg width="100%" height="100%" viewBox="0 0 350 189" version="1.1" xmlns="http://www.w3.org/2000/svg" xmlns:xlink="http://www.w3.org/1999/xlink" xml:space="preserve" xmlns:serif="http://www.serif.com/" style="fill-rule:evenodd;clip-rule:evenodd;stroke-linejoin:round;stroke-miterlimit:2;">
    <g transform="matrix(1,0,0,1,-1290.25572,-721.332436)">
        <g id="EVO-transparent" serif:id="EVO transparent" transform="matrix(0.460673,0,0,0.401644,1194.667622,535.970896)">
            <path d="M853.253,801.279L207.497,801.279L207.497,461.507L949.479,461.507L853.253,801.279ZM280.374,736.159L411.562,736.159L411.562,690.315L329.907,690.315L329.907,652.627L405.187,652.627L405.187,607.909L329.907,607.909L329.907,572.471L412.052,572.471L412.052,526.627L280.374,526.627L280.374,736.159ZM523.604,688.381C521.8,679.426 519.968,670.532 518.106,661.698C514.265,643.463 510.055,625.534 505.478,607.909L484.267,526.627L428.114,526.627L489.417,736.159L557.095,736.159L616.436,526.627L561.018,526.627L540.788,607.909C536.375,625.534 532.37,643.463 528.773,661.698C527.031,670.532 525.308,679.426 523.604,688.381ZM708.023,738.971C724.615,738.971 739.614,734.87 753.019,726.666C766.424,718.463 777.07,706.37 784.958,690.385C792.845,674.401 796.789,654.784 796.789,631.534C796.789,608.19 792.845,588.502 784.958,572.471C777.07,556.44 766.424,544.323 753.019,536.12C739.614,527.916 724.615,523.815 708.023,523.815C691.43,523.815 676.411,527.916 662.965,536.12C649.519,544.323 638.873,556.44 631.026,572.471C623.18,588.502 619.256,608.19 619.256,631.534C619.256,654.69 623.18,674.26 631.026,690.245C638.873,706.229 649.519,718.346 662.965,726.596C676.411,734.846 691.43,738.971 708.023,738.971ZM708.023,689.471C699.849,689.471 692.963,687.245 687.364,682.791C681.765,678.338 677.514,671.799 674.613,663.174C671.711,654.549 670.26,644.002 670.26,631.534C670.26,618.971 671.711,608.354 674.613,599.682C677.514,591.01 681.765,584.448 687.364,579.995C692.963,575.541 699.849,573.315 708.023,573.315C716.278,573.315 723.205,575.541 728.804,579.995C734.403,584.448 738.633,591.01 741.494,599.682C744.355,608.354 745.785,618.971 745.785,631.534C745.785,644.002 744.355,654.549 741.494,663.174C738.633,671.799 734.403,678.338 728.804,682.791C723.205,687.245 716.278,689.471 708.023,689.471Z" style="fill:rgb(228,87,46);"/>
        </g>
        <g transform="matrix(0.503003,0,0,0.503003,1065.969638,380.170952)">
            <g transform="matrix(60,0,0,60,458.236878,1052.018843)">
                <path d="M0.385,0.01C0.318,0.01 0.259,-0.005 0.206,-0.033C0.153,-0.062 0.111,-0.104 0.08,-0.159C0.05,-0.215 0.034,-0.283 0.034,-0.363C0.034,-0.444 0.05,-0.513 0.081,-0.568C0.112,-0.624 0.154,-0.666 0.208,-0.695C0.261,-0.723 0.32,-0.737 0.385,-0.737C0.43,-0.737 0.472,-0.731 0.51,-0.719C0.548,-0.707 0.582,-0.689 0.611,-0.666C0.64,-0.642 0.663,-0.613 0.681,-0.579C0.699,-0.545 0.71,-0.506 0.715,-0.462L0.515,-0.462C0.513,-0.478 0.509,-0.492 0.502,-0.504C0.496,-0.517 0.487,-0.528 0.477,-0.537C0.467,-0.546 0.454,-0.553 0.44,-0.558C0.425,-0.563 0.409,-0.565 0.391,-0.565C0.358,-0.565 0.33,-0.557 0.307,-0.541C0.284,-0.525 0.267,-0.502 0.255,-0.472C0.243,-0.442 0.237,-0.406 0.237,-0.363C0.237,-0.319 0.243,-0.282 0.255,-0.252C0.267,-0.222 0.285,-0.2 0.307,-0.185C0.33,-0.17 0.357,-0.162 0.39,-0.162C0.408,-0.162 0.424,-0.165 0.438,-0.169C0.453,-0.174 0.465,-0.181 0.476,-0.19C0.487,-0.2 0.496,-0.21 0.502,-0.223C0.509,-0.236 0.513,-0.25 0.516,-0.266L0.716,-0.266C0.714,-0.235 0.705,-0.203 0.69,-0.171C0.675,-0.139 0.654,-0.109 0.627,-0.082C0.599,-0.054 0.565,-0.032 0.525,-0.015C0.485,0.001 0.438,0.01 0.385,0.01Z" style="fill-rule:nonzero;"/>
            </g>
            <g transform="matrix(60,0,0,60,503.090393,1052.018843)">
                <path d="M0.388,0.01C0.322,0.01 0.262,-0.005 0.208,-0.033C0.155,-0.062 0.112,-0.104 0.081,-0.159C0.05,-0.215 0.034,-0.283 0.034,-0.363C0.034,-0.444 0.05,-0.513 0.081,-0.568C0.112,-0.624 0.155,-0.666 0.208,-0.695C0.262,-0.723 0.322,-0.737 0.388,-0.737C0.454,-0.737 0.514,-0.723 0.567,-0.695C0.62,-0.666 0.663,-0.624 0.694,-0.568C0.726,-0.513 0.741,-0.444 0.741,-0.363C0.741,-0.283 0.726,-0.214 0.694,-0.159C0.663,-0.103 0.62,-0.061 0.567,-0.033C0.514,-0.004 0.454,0.01 0.388,0.01ZM0.388,-0.162C0.421,-0.162 0.448,-0.17 0.47,-0.185C0.493,-0.201 0.51,-0.223 0.521,-0.253C0.532,-0.283 0.538,-0.32 0.538,-0.363C0.538,-0.407 0.532,-0.444 0.521,-0.474C0.51,-0.504 0.493,-0.527 0.47,-0.542C0.448,-0.558 0.421,-0.565 0.388,-0.565C0.355,-0.565 0.328,-0.558 0.305,-0.542C0.283,-0.527 0.266,-0.504 0.255,-0.474C0.243,-0.444 0.237,-0.407 0.237,-0.363C0.237,-0.32 0.243,-0.283 0.255,-0.253C0.266,-0.223 0.283,-0.201 0.305,-0.185C0.328,-0.17 0.355,-0.162 0.388,-0.162Z" style="fill-rule:nonzero;"/>
            </g>
            <g transform="matrix(60,0,0,60,549.613831,1052.018843)">
                <path d="M0.047,-0L0.047,-0.728L0.358,-0.728L0.424,-0.5C0.429,-0.48 0.436,-0.455 0.443,-0.422C0.45,-0.39 0.457,-0.356 0.464,-0.319C0.471,-0.282 0.478,-0.246 0.483,-0.212C0.489,-0.178 0.494,-0.149 0.497,-0.126L0.46,-0.126C0.464,-0.149 0.468,-0.178 0.474,-0.212C0.48,-0.246 0.486,-0.282 0.493,-0.319C0.5,-0.356 0.507,-0.39 0.514,-0.422C0.521,-0.455 0.527,-0.48 0.533,-0.5L0.597,-0.728L0.909,-0.728L0.909,-0L0.71,-0L0.71,-0.281C0.71,-0.298 0.71,-0.32 0.711,-0.347C0.712,-0.375 0.713,-0.405 0.714,-0.438C0.715,-0.471 0.716,-0.504 0.717,-0.537C0.717,-0.57 0.718,-0.601 0.718,-0.629L0.729,-0.629C0.723,-0.598 0.716,-0.566 0.709,-0.532C0.701,-0.499 0.694,-0.467 0.686,-0.435C0.678,-0.403 0.671,-0.374 0.664,-0.347C0.656,-0.321 0.65,-0.299 0.645,-0.281L0.561,-0L0.396,-0L0.311,-0.281C0.305,-0.299 0.299,-0.321 0.292,-0.347C0.284,-0.374 0.277,-0.403 0.269,-0.435C0.26,-0.467 0.253,-0.499 0.245,-0.532C0.237,-0.566 0.23,-0.598 0.224,-0.629L0.238,-0.629C0.238,-0.601 0.239,-0.57 0.24,-0.537C0.24,-0.504 0.241,-0.471 0.242,-0.438C0.243,-0.405 0.244,-0.375 0.245,-0.347C0.246,-0.32 0.246,-0.298 0.246,-0.281L0.246,-0L0.047,-0Z" style="fill-rule:nonzero;"/>
            </g>
            <g transform="matrix(60,0,0,60,606.977112,1052.018843)">
                <path d="M0.047,-0L0.047,-0.728L0.358,-0.728L0.424,-0.5C0.429,-0.48 0.436,-0.455 0.443,-0.422C0.45,-0.39 0.457,-0.356 0.464,-0.319C0.471,-0.282 0.478,-0.246 0.483,-0.212C0.489,-0.178 0.494,-0.149 0.497,-0.126L0.46,-0.126C0.464,-0.149 0.468,-0.178 0.474,-0.212C0.48,-0.246 0.486,-0.282 0.493,-0.319C0.5,-0.356 0.507,-0.39 0.514,-0.422C0.521,-0.455 0.527,-0.48 0.533,-0.5L0.597,-0.728L0.909,-0.728L0.909,-0L0.71,-0L0.71,-0.281C0.71,-0.298 0.71,-0.32 0.711,-0.347C0.712,-0.375 0.713,-0.405 0.714,-0.438C0.715,-0.471 0.716,-0.504 0.717,-0.537C0.717,-0.57 0.718,-0.601 0.718,-0.629L0.729,-0.629C0.723,-0.598 0.716,-0.566 0.709,-0.532C0.701,-0.499 0.694,-0.467 0.686,-0.435C0.678,-0.403 0.671,-0.374 0.664,-0.347C0.656,-0.321 0.65,-0.299 0.645,-0.281L0.561,-0L0.396,-0L0.311,-0.281C0.305,-0.299 0.299,-0.321 0.292,-0.347C0.284,-0.374 0.277,-0.403 0.269,-0.435C0.26,-0.467 0.253,-0.499 0.245,-0.532C0.237,-0.566 0.23,-0.598 0.224,-0.629L0.238,-0.629C0.238,-0.601 0.239,-0.57 0.24,-0.537C0.24,-0.504 0.241,-0.471 0.242,-0.438C0.243,-0.405 0.244,-0.375 0.245,-0.347C0.246,-0.32 0.246,-0.298 0.246,-0.281L0.246,-0L0.047,-0Z" style="fill-rule:nonzero;"/>
            </g>
            <g transform="matrix(60,0,0,60,664.340393,1052.018843)">
                <path d="M0.36,0.009C0.298,0.009 0.243,-0.002 0.196,-0.024C0.149,-0.046 0.112,-0.077 0.086,-0.118C0.06,-0.158 0.047,-0.206 0.047,-0.262L0.047,-0.728L0.244,-0.728L0.244,-0.278C0.244,-0.256 0.249,-0.235 0.259,-0.218C0.269,-0.201 0.283,-0.187 0.301,-0.177C0.318,-0.167 0.338,-0.162 0.36,-0.162C0.383,-0.162 0.403,-0.167 0.421,-0.177C0.438,-0.187 0.452,-0.201 0.462,-0.218C0.472,-0.235 0.478,-0.256 0.478,-0.278L0.478,-0.728L0.675,-0.728L0.675,-0.262C0.675,-0.206 0.662,-0.158 0.635,-0.118C0.609,-0.077 0.572,-0.046 0.525,-0.024C0.478,-0.002 0.423,0.009 0.36,0.009Z" style="fill-rule:nonzero;"/>
            </g>
            <g transform="matrix(60,0,0,60,707.641174,1052.018843)">
                <path d="M0.047,-0L0.047,-0.728L0.262,-0.728L0.435,-0.442C0.45,-0.417 0.464,-0.392 0.477,-0.368C0.49,-0.343 0.503,-0.316 0.515,-0.286C0.527,-0.256 0.54,-0.221 0.552,-0.182L0.535,-0.182C0.534,-0.208 0.531,-0.239 0.529,-0.273C0.527,-0.308 0.524,-0.342 0.522,-0.376C0.521,-0.409 0.52,-0.438 0.52,-0.461L0.52,-0.728L0.723,-0.728L0.723,-0L0.508,-0L0.346,-0.266C0.328,-0.296 0.312,-0.324 0.298,-0.35C0.284,-0.377 0.271,-0.404 0.258,-0.434C0.245,-0.463 0.23,-0.497 0.214,-0.535L0.234,-0.535C0.237,-0.501 0.24,-0.467 0.242,-0.433C0.244,-0.399 0.246,-0.368 0.248,-0.339C0.249,-0.31 0.25,-0.285 0.25,-0.266L0.25,-0L0.047,-0Z" style="fill-rule:nonzero;"/>
            </g>
            <g transform="matrix(60,0,0,60,753.813049,1052.018843)">
                <rect x="0.047" y="-0.728" width="0.197" height="0.728" style="fill-rule:nonzero;"/>
            </g>
            <g transform="matrix(60,0,0,60,771.273987,1052.018843)">
                <path d="M0.385,0.01C0.318,0.01 0.259,-0.005 0.206,-0.033C0.153,-0.062 0.111,-0.104 0.08,-0.159C0.05,-0.215 0.034,-0.283 0.034,-0.363C0.034,-0.444 0.05,-0.513 0.081,-0.568C0.112,-0.624 0.154,-0.666 0.208,-0.695C0.261,-0.723 0.32,-0.737 0.385,-0.737C0.43,-0.737 0.472,-0.731 0.51,-0.719C0.548,-0.707 0.582,-0.689 0.611,-0.666C0.64,-0.642 0.663,-0.613 0.681,-0.579C0.699,-0.545 0.71,-0.506 0.715,-0.462L0.515,-0.462C0.513,-0.478 0.509,-0.492 0.502,-0.504C0.496,-0.517 0.487,-0.528 0.477,-0.537C0.467,-0.546 0.454,-0.553 0.44,-0.558C0.425,-0.563 0.409,-0.565 0.391,-0.565C0.358,-0.565 0.33,-0.557 0.307,-0.541C0.284,-0.525 0.267,-0.502 0.255,-0.472C0.243,-0.442 0.237,-0.406 0.237,-0.363C0.237,-0.319 0.243,-0.282 0.255,-0.252C0.267,-0.222 0.285,-0.2 0.307,-0.185C0.33,-0.17 0.357,-0.162 0.39,-0.162C0.408,-0.162 0.424,-0.165 0.438,-0.169C0.453,-0.174 0.465,-0.181 0.476,-0.19C0.487,-0.2 0.496,-0.21 0.502,-0.223C0.509,-0.236 0.513,-0.25 0.516,-0.266L0.716,-0.266C0.714,-0.235 0.705,-0.203 0.69,-0.171C0.675,-0.139 0.654,-0.109 0.627,-0.082C0.599,-0.054 0.565,-0.032 0.525,-0.015C0.485,0.001 0.438,0.01 0.385,0.01Z" style="fill-rule:nonzero;"/>
            </g>
            <g transform="matrix(60,0,0,60,814.076721,1052.018843)">
                <path d="M0.022,-0L0.258,-0.728L0.528,-0.728L0.772,-0L0.549,-0L0.464,-0.282C0.446,-0.343 0.429,-0.407 0.413,-0.473C0.397,-0.539 0.382,-0.604 0.368,-0.669L0.413,-0.669C0.399,-0.604 0.385,-0.539 0.371,-0.473C0.357,-0.407 0.341,-0.343 0.324,-0.282L0.243,-0L0.022,-0ZM0.197,-0.14L0.197,-0.287L0.598,-0.287L0.598,-0.14L0.197,-0.14Z" style="fill-rule:nonzero;"/>
            </g>
            <g transform="matrix(60,0,0,60,856.234924,1052.018843)">
                <path d="M0.027,-0.568L0.027,-0.728L0.659,-0.728L0.659,-0.568L0.442,-0.568L0.442,-0L0.245,-0L0.245,-0.568L0.027,-0.568Z" style="fill-rule:nonzero;"/>
            </g>
            <g transform="matrix(60,0,0,60,897.426331,1052.018843)">
                <rect x="0.047" y="-0.728" width="0.197" height="0.728" style="fill-rule:nonzero;"/>
            </g>
            <g transform="matrix(60,0,0,60,914.887268,1052.018843)">
                <path d="M0.388,0.01C0.322,0.01 0.262,-0.005 0.208,-0.033C0.155,-0.062 0.112,-0.104 0.081,-0.159C0.05,-0.215 0.034,-0.283 0.034,-0.363C0.034,-0.444 0.05,-0.513 0.081,-0.568C0.112,-0.624 0.155,-0.666 0.208,-0.695C0.262,-0.723 0.322,-0.737 0.388,-0.737C0.454,-0.737 0.514,-0.723 0.567,-0.695C0.62,-0.666 0.663,-0.624 0.694,-0.568C0.726,-0.513 0.741,-0.444 0.741,-0.363C0.741,-0.283 0.726,-0.214 0.694,-0.159C0.663,-0.103 0.62,-0.061 0.567,-0.033C0.514,-0.004 0.454,0.01 0.388,0.01ZM0.388,-0.162C0.421,-0.162 0.448,-0.17 0.47,-0.185C0.493,-0.201 0.51,-0.223 0.521,-0.253C0.532,-0.283 0.538,-0.32 0.538,-0.363C0.538,-0.407 0.532,-0.444 0.521,-0.474C0.51,-0.504 0.493,-0.527 0.47,-0.542C0.448,-0.558 0.421,-0.565 0.388,-0.565C0.355,-0.565 0.328,-0.558 0.305,-0.542C0.283,-0.527 0.266,-0.504 0.255,-0.474C0.243,-0.444 0.237,-0.407 0.237,-0.363C0.237,-0.32 0.243,-0.283 0.255,-0.253C0.266,-0.223 0.283,-0.201 0.305,-0.185C0.328,-0.17 0.355,-0.162 0.388,-0.162Z" style="fill-rule:nonzero;"/>
            </g>
            <g transform="matrix(60,0,0,60,961.410706,1052.018843)">
                <path d="M0.047,-0L0.047,-0.728L0.262,-0.728L0.435,-0.442C0.45,-0.417 0.464,-0.392 0.477,-0.368C0.49,-0.343 0.503,-0.316 0.515,-0.286C0.527,-0.256 0.54,-0.221 0.552,-0.182L0.535,-0.182C0.534,-0.208 0.531,-0.239 0.529,-0.273C0.527,-0.308 0.524,-0.342 0.522,-0.376C0.521,-0.409 0.52,-0.438 0.52,-0.461L0.52,-0.728L0.723,-0.728L0.723,-0L0.508,-0L0.346,-0.266C0.328,-0.296 0.312,-0.324 0.298,-0.35C0.284,-0.377 0.271,-0.404 0.258,-0.434C0.245,-0.463 0.23,-0.497 0.214,-0.535L0.234,-0.535C0.237,-0.501 0.24,-0.467 0.242,-0.433C0.244,-0.399 0.246,-0.368 0.248,-0.339C0.249,-0.31 0.25,-0.285 0.25,-0.266L0.25,-0L0.047,-0Z" style="fill-rule:nonzero;"/>
            </g>
            <g transform="matrix(60,0,0,60,1007.582581,1052.018843)">
            </g>
            <g transform="matrix(60,0,0,60,1019.535706,1052.018843)">
                <path d="M0.047,-0L0.047,-0.728L0.244,-0.728L0.244,-0.159L0.538,-0.159L0.538,-0L0.047,-0Z" style="fill-rule:nonzero;"/>
            </g>
            <g transform="matrix(60,0,0,60,1053.461487,1052.018843)">
                <path d="M0.022,-0L0.258,-0.728L0.528,-0.728L0.772,-0L0.549,-0L0.464,-0.282C0.446,-0.343 0.429,-0.407 0.413,-0.473C0.397,-0.539 0.382,-0.604 0.368,-0.669L0.413,-0.669C0.399,-0.604 0.385,-0.539 0.371,-0.473C0.357,-0.407 0.341,-0.343 0.324,-0.282L0.243,-0L0.022,-0ZM0.197,-0.14L0.197,-0.287L0.598,-0.287L0.598,-0.14L0.197,-0.14Z" style="fill-rule:nonzero;"/>
            </g>
            <g transform="matrix(60,0,0,60,1101.156799,1052.018843)">
                <path d="M0.047,-0L0.047,-0.728L0.362,-0.728C0.418,-0.728 0.464,-0.72 0.502,-0.705C0.54,-0.69 0.568,-0.669 0.587,-0.642C0.607,-0.615 0.616,-0.583 0.616,-0.546C0.616,-0.519 0.61,-0.495 0.599,-0.473C0.587,-0.451 0.571,-0.432 0.55,-0.417C0.529,-0.402 0.504,-0.392 0.476,-0.387L0.476,-0.379C0.507,-0.378 0.535,-0.37 0.561,-0.356C0.586,-0.341 0.607,-0.321 0.622,-0.296C0.637,-0.27 0.645,-0.24 0.645,-0.206C0.645,-0.166 0.634,-0.131 0.614,-0.1C0.593,-0.069 0.564,-0.044 0.526,-0.027C0.488,-0.009 0.442,-0 0.39,-0L0.047,-0ZM0.244,-0.157L0.337,-0.157C0.37,-0.157 0.395,-0.164 0.411,-0.176C0.428,-0.189 0.437,-0.207 0.437,-0.231C0.437,-0.249 0.433,-0.263 0.425,-0.275C0.417,-0.287 0.406,-0.296 0.391,-0.302C0.377,-0.308 0.36,-0.312 0.34,-0.312L0.244,-0.312L0.244,-0.157ZM0.244,-0.434L0.325,-0.434C0.342,-0.434 0.358,-0.436 0.371,-0.442C0.384,-0.447 0.394,-0.455 0.402,-0.465C0.409,-0.475 0.413,-0.488 0.413,-0.503C0.413,-0.525 0.405,-0.542 0.389,-0.554C0.373,-0.566 0.353,-0.572 0.328,-0.572L0.244,-0.572L0.244,-0.434Z" style="fill-rule:nonzero;"/>
            </g>
            <g transform="matrix(60,0,0,60,1141.234924,1052.018843)">
            </g>
        </g>
    </g>
</svg>
