<?xml version="1.0" encoding="UTF-8" standalone="no"?><!DOCTYPE svg PUBLIC "-//W3C//DTD SVG 1.1//EN" "http://www.w3.org/Graphics/SVG/1.1/DTD/svg11.dtd"><svg width="100%" height="100%" viewBox="0 0 1550 2205" version="1.1" xmlns="http://www.w3.org/2000/svg" xmlns:xlink="http://www.w3.org/1999/xlink" xml:space="preserve" xmlns:serif="http://www.serif.com/" style="fill-rule:evenodd;clip-rule:evenodd;stroke-linejoin:round;stroke-miterlimit:2;"><g><g><rect x="0" y="0" width="1549.78" height="1549.78" style="fill:#b19461;"/><g><path d="M559.811,206.162l287.44,684.927c11.499,26.513 24.259,44.612 38.282,54.295c14.035,9.684 26.882,14.89 38.541,15.618l-0,21.848c-20.806,-1.457 -45.632,-2.367 -74.478,-2.731c-28.833,-0.364 -57.98,-0.546 -87.441,-0.546c-34.509,-0 -66.894,0.182 -97.156,0.546c-30.261,0.364 -54.607,1.274 -73.037,2.731l0,-21.848c40.185,-1.457 65.712,-7.829 76.583,-19.117c10.871,-11.288 8.427,-35.502 -7.331,-72.644l-207.533,-519.327l20.794,-23.811l-188.623,453.119c-15.451,36.413 -24.752,66.385 -27.904,89.917c-3.151,23.521 -1.144,41.835 6.021,54.944c7.177,13.108 19.076,22.36 35.697,27.753c16.632,5.382 37.001,8.438 61.107,9.166l0,21.848c-24.894,-1.457 -49.202,-2.367 -72.926,-2.731c-23.712,-0.364 -47.227,-0.546 -70.545,-0.546c-17.814,-0 -34.244,0.182 -49.288,0.546c-15.045,0.364 -28.476,1.274 -40.295,2.731l-0,-21.848c16.694,-3.345 33.548,-12.773 50.563,-28.283c17.026,-15.521 33.339,-42.142 48.937,-79.863l271.614,-646.694c9.455,0.581 19.618,0.871 30.489,0.871c10.871,-0 21.034,-0.29 30.489,-0.871Zm103.065,462.08l-0,21.848l-352.204,-0l11.819,-21.848l340.385,0Z" style="fill:#fff;fill-rule:nonzero;"/><path d="M1125.4,541.582c44.124,-0 78.005,4.409 101.643,13.228c23.638,8.807 44.124,18.309 61.459,28.504c9.455,5.098 17.137,8.921 23.046,11.47c5.91,2.549 11.622,3.824 17.138,3.824c7.879,-0 13.592,-4.006 17.137,-12.017c3.546,-8.011 6.501,-20.027 8.864,-36.048l27.184,-0c-0.788,13.541 -1.773,29.528 -2.955,47.962c-1.182,18.423 -1.97,42.746 -2.364,72.968c-0.393,30.223 -0.59,70.021 -0.59,119.395l-27.184,-0c-2.684,-36.993 -11.671,-72.678 -26.962,-107.054c-15.278,-34.376 -36.983,-62.63 -65.115,-84.763c-28.131,-22.143 -63.625,-33.215 -106.481,-33.215c-38.928,-0 -71.116,10.486 -96.564,31.457c-25.448,20.972 -38.172,49.374 -38.172,85.207c0,30.438 8.274,56.184 24.82,77.235c16.547,21.051 39.988,41.152 70.323,60.303c30.335,19.151 66.063,41.255 107.183,66.311c38.768,23.009 73.474,45.909 104.117,68.701c30.655,22.792 55.007,48.173 73.056,76.143c18.048,27.97 27.072,61.76 27.072,101.37c0,47.485 -12.767,86.811 -38.3,117.978c-25.534,31.167 -59.415,54.471 -101.643,69.913c-42.228,15.441 -88.556,23.162 -138.983,23.162c-46.488,-0 -83.447,-4.37 -110.876,-13.109c-27.418,-8.739 -50.736,-17.842 -69.954,-27.309c-17.334,-10.196 -30.729,-15.294 -40.184,-15.294c-7.879,0 -13.592,4.006 -17.137,12.016c-3.546,8.011 -6.501,20.027 -8.865,36.049l-27.183,0c1.576,-16.75 2.561,-36.373 2.955,-58.869c0.394,-22.508 0.788,-51.82 1.182,-87.937c0.393,-36.129 0.59,-81.867 0.59,-137.215l27.184,0c3.152,46.609 12.016,90.162 26.593,130.66c14.576,40.487 37.032,73.076 67.367,97.769c30.336,24.681 70.717,37.022 121.144,37.022c27.258,-0 52.034,-4.626 74.33,-13.877c22.296,-9.251 40.302,-23.526 54.016,-42.825c13.715,-19.299 20.573,-43.73 20.573,-73.293c-0,-30.154 -7.609,-56.479 -22.826,-78.976c-15.204,-22.507 -36.201,-43.553 -62.991,-63.136c-26.789,-19.595 -58.066,-39.588 -93.831,-59.979c-37.033,-21.996 -71.701,-44.208 -104.006,-66.636c-32.305,-22.428 -58.11,-48.099 -77.414,-77.013c-19.305,-28.914 -28.957,-63.615 -28.957,-104.101c0,-45.004 11.776,-81.964 35.328,-110.878c23.564,-28.914 54.49,-50.323 92.778,-64.229c38.301,-13.916 79.119,-20.874 122.455,-20.874Z" style="fill:#fff;fill-rule:nonzero;"/></g></g><g><path d="M83.278,1843.53c13.555,-0 23.963,1.465 31.225,4.396c7.262,2.928 13.555,6.086 18.88,9.475c2.905,1.694 5.265,2.965 7.08,3.812c1.816,0.847 3.571,1.271 5.265,1.271c2.421,-0 4.176,-1.331 5.265,-3.994c1.089,-2.663 1.997,-6.657 2.723,-11.982l8.351,0c-0.242,4.501 -0.545,9.815 -0.908,15.942c-0.363,6.123 -0.605,14.207 -0.726,24.253c-0.121,10.045 -0.181,23.273 -0.181,39.684l-8.351,-0c-0.825,-12.296 -3.586,-24.157 -8.283,-35.583c-4.694,-11.425 -11.362,-20.816 -20.004,-28.173c-8.642,-7.36 -19.546,-11.04 -32.712,-11.04c-11.959,0 -21.847,3.486 -29.665,10.456c-7.817,6.971 -11.726,16.411 -11.726,28.321c-0,10.117 2.541,18.674 7.624,25.671c5.084,6.997 12.285,13.678 21.604,20.043c9.319,6.366 20.295,13.712 32.927,22.041c11.91,7.647 22.572,15.259 31.986,22.834c9.417,7.576 16.898,16.012 22.443,25.309c5.545,9.296 8.317,20.527 8.317,33.693c-0,15.783 -3.922,28.854 -11.766,39.213c-7.844,10.359 -18.253,18.105 -31.226,23.237c-12.972,5.133 -27.205,7.699 -42.696,7.699c-14.281,-0 -25.635,-1.452 -34.062,-4.357c-8.423,-2.905 -15.586,-5.931 -21.49,-9.077c-5.325,-3.389 -9.44,-5.083 -12.345,-5.083c-2.421,-0 -4.176,1.331 -5.265,3.993c-1.089,2.663 -1.997,6.657 -2.723,11.982l-8.351,0c0.484,-5.567 0.787,-12.089 0.908,-19.567c0.121,-7.481 0.242,-17.223 0.363,-29.228c0.121,-12.008 0.181,-27.211 0.181,-45.607l8.351,0c0.969,15.492 3.692,29.968 8.17,43.429c4.478,13.456 11.376,24.288 20.696,32.496c9.319,8.203 21.724,12.305 37.216,12.305c8.374,-0 15.985,-1.538 22.835,-4.612c6.849,-3.075 12.38,-7.82 16.594,-14.235c4.213,-6.414 6.32,-14.534 6.32,-24.36c-0,-10.023 -2.338,-18.773 -7.012,-26.25c-4.671,-7.481 -11.122,-14.476 -19.352,-20.985c-8.23,-6.513 -17.838,-13.158 -28.825,-19.936c-11.377,-7.311 -22.027,-14.694 -31.952,-22.148c-9.924,-7.455 -17.851,-15.987 -23.782,-25.598c-5.93,-9.61 -8.895,-21.144 -8.895,-34.601c-0,-14.958 3.617,-27.242 10.852,-36.853c7.239,-9.61 16.74,-16.726 28.503,-21.348c11.766,-4.626 24.305,-6.938 37.619,-6.938Z" style="fill:#fff;fill-rule:nonzero;"/><path d="M340.194,1846.87l88.304,227.655c3.532,8.812 7.452,14.827 11.76,18.046c4.312,3.219 8.259,4.949 11.84,5.191l0,7.262c-6.392,-0.484 -14.018,-0.787 -22.88,-0.908c-8.858,-0.121 -17.812,-0.182 -26.862,-0.182c-10.602,0 -20.551,0.061 -29.847,0.182c-9.297,0.121 -16.776,0.424 -22.438,0.908l0,-7.262c12.345,-0.484 20.187,-2.602 23.527,-6.354c3.34,-3.752 2.589,-11.8 -2.252,-24.145l-63.756,-172.613l6.388,-7.914l-57.946,150.606c-4.746,12.103 -7.604,22.065 -8.572,29.887c-0.968,7.817 -0.352,13.905 1.85,18.262c2.205,4.357 5.86,7.432 10.966,9.224c5.11,1.789 11.367,2.805 18.772,3.047l0,7.262c-7.647,-0.484 -15.115,-0.787 -22.403,-0.908c-7.284,-0.121 -14.508,-0.182 -21.672,-0.182c-5.472,0 -10.52,0.061 -15.141,0.182c-4.622,0.121 -8.748,0.424 -12.379,0.908l-0,-7.262c5.128,-1.112 10.306,-4.245 15.533,-9.401c5.231,-5.158 10.242,-14.007 15.034,-26.544l83.441,-214.947c2.905,0.193 6.027,0.29 9.367,0.29c3.339,-0 6.462,-0.097 9.366,-0.29Zm31.662,153.585l0,7.262l-108.199,-0l3.631,-7.262l104.568,0Z" style="fill:#fff;fill-rule:nonzero;"/><path d="M615.123,1842.87c16.218,0 29.41,2.336 39.577,7.007c10.166,4.671 19.436,10.202 27.81,16.594c2.954,2.322 5.374,3.483 7.261,3.483c4.6,0 7.625,-7.333 9.078,-22.001l8.351,0c-0.485,9.248 -0.848,20.503 -1.09,33.767c-0.242,13.264 -0.363,30.813 -0.363,52.648l-8.351,-0c-1.694,-13.071 -4.115,-24.787 -7.261,-35.146c-3.147,-10.359 -8.811,-19.219 -16.992,-26.579c-6.244,-6.728 -14.135,-11.968 -23.674,-15.72c-9.535,-3.752 -19.192,-5.628 -28.973,-5.628c-12.878,-0 -24.098,3.304 -33.659,9.911c-9.561,6.607 -17.538,15.698 -23.93,27.271c-6.388,11.57 -11.168,24.919 -14.342,40.047c-3.169,15.129 -4.754,31.286 -4.754,48.472c0,43.57 6.341,75.437 19.023,95.599c12.685,20.163 31.421,30.244 56.21,30.244c6.777,0 12.672,-0.908 17.683,-2.723c5.011,-1.815 9.041,-3.741 12.09,-5.775c3.823,-2.663 6.34,-5.409 7.551,-8.238c1.21,-2.833 1.815,-6.501 1.815,-11.006l0,-35.435c0,-10.699 -0.944,-18.663 -2.831,-23.889c-1.887,-5.231 -5.458,-8.79 -10.711,-10.677c-5.253,-1.888 -12.963,-2.952 -23.13,-3.194l0,-7.262c4.842,0.242 10.602,0.423 17.281,0.544c6.683,0.121 13.691,0.243 21.025,0.364c7.333,0.121 14.051,0.181 20.151,0.181c9.44,0 18.045,-0.121 25.813,-0.363c7.773,-0.242 14.176,-0.484 19.21,-0.726l-0,7.262c-4.841,0.242 -8.497,1.089 -10.967,2.541c-2.466,1.452 -4.099,4.357 -4.901,8.714c-0.798,4.357 -1.197,11.014 -1.197,19.97l-0,71.891l-7.262,-0c-0.242,-4.115 -1.174,-8.593 -2.797,-13.434c-1.619,-4.842 -4.147,-7.262 -7.585,-7.262c-1.645,-0 -3.606,0.412 -5.883,1.237c-2.277,0.82 -6.004,2.757 -11.182,5.809c-8.57,5.469 -17.649,9.958 -27.237,13.468c-9.584,3.51 -20.015,5.265 -31.293,5.265c-27.062,-0 -49.996,-5.168 -68.805,-15.505c-18.809,-10.337 -33.054,-25.234 -42.736,-44.693c-9.683,-19.463 -14.524,-42.775 -14.524,-69.934c0,-27.837 5.447,-51.993 16.339,-72.47c10.893,-20.476 25.84,-36.367 44.841,-47.672c19.002,-11.304 40.775,-16.957 65.321,-16.957Z" style="fill:#fff;fill-rule:nonzero;"/><path d="M1008.71,1847.96l-0,7.262c-7.845,0.726 -13.788,2.47 -17.831,5.231c-4.04,2.757 -6.738,7.114 -8.096,13.071c-1.354,5.953 -2.031,14.376 -2.031,25.268l0,207.322c-2.326,-0.193 -4.735,-0.289 -7.228,-0.289c-2.492,-0 -5.141,0.096 -7.948,0.289l-155.837,-211.679l0,156.853c0,11.717 0.738,20.783 2.213,27.197c1.478,6.415 4.674,10.989 9.587,13.724c4.913,2.734 12.478,4.586 22.693,5.554l0,7.262c-4.55,-0.484 -10.48,-0.787 -17.791,-0.908c-7.311,-0.121 -14.21,-0.182 -20.696,-0.182c-5.76,0 -11.605,0.061 -17.536,0.182c-5.93,0.121 -10.856,0.424 -14.778,0.908l-0,-7.262c7.938,-0.968 13.905,-2.77 17.898,-5.407c3.994,-2.64 6.668,-6.997 8.022,-13.071c1.358,-6.078 2.037,-14.442 2.037,-25.092l0,-167.746c0,-8.956 -0.679,-15.552 -2.037,-19.788c-1.354,-4.236 -4.052,-7.14 -8.095,-8.714c-4.043,-1.573 -9.985,-2.481 -17.825,-2.723l-0,-7.262c3.922,0.243 8.848,0.485 14.778,0.727c5.931,0.242 11.776,0.363 17.536,0.363c5.617,-0 11.038,-0.121 16.265,-0.363c5.227,-0.242 9.923,-0.484 14.087,-0.727l136.304,181.254l0,-127.517c0,-11.861 -0.739,-20.962 -2.218,-27.305c-1.475,-6.343 -4.646,-10.942 -9.514,-13.797c-4.864,-2.856 -12.451,-4.647 -22.761,-5.373l0,-7.262c4.55,0.243 10.516,0.485 17.899,0.727c7.383,0.242 14.245,0.363 20.588,0.363c6.002,-0 11.944,-0.121 17.825,-0.363c5.881,-0.242 10.711,-0.484 14.49,-0.727Z" style="fill:#fff;fill-rule:nonzero;"/><path d="M1248.42,1847.96c-0.969,9.925 -1.634,19.535 -1.997,28.832c-0.364,9.292 -0.545,16.384 -0.545,21.274c-0,4.637 0.121,9.083 0.363,13.338c0.242,4.251 0.484,7.793 0.726,10.626l-8.351,-0c-2.035,-16.604 -5.206,-29.711 -9.514,-39.321c-4.308,-9.611 -10.202,-16.413 -17.683,-20.407c-7.481,-3.994 -17.054,-5.991 -28.718,-5.991l-19.97,0c-7.42,0 -13.04,0.619 -16.86,1.856c-3.817,1.233 -6.379,3.755 -7.688,7.568c-1.304,3.812 -1.957,9.748 -1.957,17.808l0,185.899c0,7.844 0.653,13.728 1.957,17.65c1.309,3.918 3.871,6.495 7.688,7.732c3.82,1.233 9.44,1.85 16.86,1.85l20.696,-0c12.345,-0 22.644,-2.275 30.897,-6.825c8.252,-4.55 14.931,-12.139 20.037,-22.767c5.11,-10.628 8.949,-25.09 11.517,-43.388l8.351,-0c-0.726,7.405 -1.089,17.087 -1.089,29.046c-0,5.171 0.157,12.587 0.47,22.251c0.314,9.663 1.005,19.674 2.071,30.034c-12.345,-0.484 -26.263,-0.787 -41.755,-0.908c-15.491,-0.121 -29.288,-0.182 -41.391,-0.182l-22.239,0c-9.051,0 -18.822,0.061 -29.314,0.182c-10.491,0.121 -21.115,0.242 -31.872,0.363c-10.756,0.121 -20.951,0.303 -30.584,0.545l0,-7.262c7.939,-0.484 13.899,-1.452 17.882,-2.905c3.983,-1.452 6.657,-4.357 8.022,-8.714c1.369,-4.357 2.054,-10.892 2.054,-19.606l-0,-180.091c-0,-8.956 -0.691,-15.552 -2.071,-19.788c-1.377,-4.236 -4.075,-7.14 -8.096,-8.714c-4.02,-1.573 -9.951,-2.481 -17.791,-2.723l0,-7.262c9.679,0.243 19.879,0.424 30.601,0.545c10.726,0.121 21.337,0.242 31.833,0.363c10.499,0.121 20.276,0.182 29.33,0.182l22.245,-0c11.134,-0 23.782,-0.061 37.942,-0.182c14.16,-0.121 26.808,-0.423 37.943,-0.908Zm-58.531,124.176l0,7.261l-64.555,0l-0,-7.261l64.555,-0Zm10.53,-47.928c-0.969,13.798 -1.392,24.327 -1.271,31.589c0.121,7.261 0.181,13.918 0.181,19.969c0,6.052 0.121,12.708 0.363,19.97c0.242,7.262 0.848,17.791 1.816,31.588l-8.351,0c-1.161,-8.229 -3.037,-16.011 -5.628,-23.345c-2.591,-7.333 -6.634,-13.264 -12.129,-17.791c-5.496,-4.527 -13.277,-6.791 -23.346,-6.791l0,-7.261c7.504,-0 13.641,-1.561 18.41,-4.681c4.769,-3.124 8.582,-7.178 11.437,-12.163c2.856,-4.989 5.057,-10.231 6.604,-15.726c1.55,-5.496 2.738,-10.615 3.563,-15.358l8.351,0Z" style="fill:#fff;fill-rule:nonzero;"/><path d="M1310.87,1847.96c5.855,0.243 13.552,0.485 23.09,0.727c9.539,0.242 19.028,0.363 28.468,0.363c11.664,-0 22.846,-0.121 33.546,-0.363c10.7,-0.242 18.277,-0.363 22.732,-0.363c21.638,-0 39.562,2.59 53.771,7.772c14.21,5.178 24.835,12.5 31.878,21.966c7.046,9.463 10.569,20.609 10.569,33.438c-0,7.939 -1.598,16.073 -4.794,24.401c-3.196,8.324 -8.68,16.046 -16.452,23.163c-7.769,7.118 -18.383,12.892 -31.844,17.321c-13.457,4.429 -30.495,6.643 -51.115,6.643l-34.857,0l0,-7.262l31.226,0c15.249,0 26.879,-2.723 34.89,-8.169c8.01,-5.446 13.457,-12.708 16.339,-21.785c2.882,-9.077 4.323,-19.183 4.323,-30.318c-0,-19.122 -3.765,-33.948 -11.296,-44.478c-7.526,-10.529 -20.463,-15.794 -38.81,-15.794c-9.974,0 -16.462,2.058 -19.465,6.173c-2.999,4.115 -4.499,12.466 -4.499,25.052l0,180.091c0,8.714 0.702,15.249 2.105,19.606c1.403,4.357 4.102,7.262 8.096,8.714c3.994,1.453 9.913,2.421 17.757,2.905l-0,7.262c-6.15,-0.484 -13.934,-0.787 -23.351,-0.908c-9.414,-0.121 -18.937,-0.182 -28.57,-0.182c-10.893,0 -21.108,0.061 -30.647,0.182c-9.538,0.121 -17.235,0.424 -23.09,0.908l0,-7.262c7.939,-0.484 13.905,-1.452 17.899,-2.905c3.994,-1.452 6.668,-4.357 8.022,-8.714c1.358,-4.357 2.037,-10.892 2.037,-19.606l-0,-180.091c-0,-8.956 -0.679,-15.552 -2.037,-19.788c-1.354,-4.236 -4.053,-7.14 -8.096,-8.714c-4.043,-1.573 -9.984,-2.481 -17.825,-2.723l0,-7.262Zm64.992,128.896c11.328,0.385 20.791,0.905 28.389,1.56c7.602,0.654 14.126,1.248 19.573,1.781c5.446,0.533 10.397,1.065 14.852,1.594c20.091,2.084 34.868,6.818 44.33,14.2c9.463,7.383 15.793,18.578 18.989,33.586l8.498,37.324c2.228,9.973 4.588,17.053 7.08,21.24c2.493,4.187 6.16,6.209 11.001,6.065c3.438,-0.148 6.329,-1.091 8.674,-2.831c2.349,-1.744 4.807,-4.189 7.375,-7.336l5.157,4.284c-6.051,7.504 -12.479,13.01 -19.283,16.52c-6.8,3.51 -15.405,5.265 -25.813,5.265c-11.668,-0 -21.471,-2.735 -29.41,-8.204c-7.939,-5.472 -13.36,-15.809 -16.265,-31.009l-6.973,-36.309c-1.887,-10.215 -4.101,-19.158 -6.643,-26.828c-2.541,-7.674 -6.029,-13.714 -10.461,-18.121c-4.429,-4.406 -10.806,-6.609 -19.13,-6.609l-39.213,0l-0.727,-6.172Z" style="fill:#fff;fill-rule:nonzero;"/></g><rect x="0" y="2175" width="1549.78" height="29.167" style="fill:#b19461;"/><g><path d="M68.343,1640.72l45.375,117.079c1.868,4.482 3.89,7.563 6.069,9.243c2.178,1.681 4.201,2.584 6.069,2.708l-0,3.735c-3.237,-0.249 -7.127,-0.405 -11.671,-0.467c-4.544,-0.062 -9.181,-0.094 -13.911,-0.094c-5.478,0 -10.582,0.032 -15.312,0.094c-4.731,0.062 -8.59,0.218 -11.577,0.467l-0,-3.735c6.348,-0.249 10.394,-1.338 12.137,-3.268c1.743,-1.929 1.369,-6.068 -1.12,-12.417l-32.865,-88.697l3.361,-4.108l-29.876,77.493c-2.365,6.224 -3.797,11.328 -4.295,15.312c-0.498,3.983 -0.187,7.095 0.934,9.336c1.12,2.241 2.987,3.828 5.602,4.762c2.614,0.933 5.85,1.463 9.709,1.587l0,3.735c-3.983,-0.249 -7.842,-0.405 -11.577,-0.467c-3.734,-0.062 -7.469,-0.094 -11.204,-0.094c-2.738,0 -5.321,0.032 -7.749,0.094c-2.427,0.062 -4.575,0.218 -6.442,0.467l0,-3.735c2.739,-0.622 5.446,-2.241 8.123,-4.855c2.676,-2.614 5.259,-7.158 7.749,-13.631l42.761,-110.544c1.494,0.124 3.112,0.187 4.855,0.187c1.743,-0 3.361,-0.063 4.855,-0.187Zm16.245,78.987l0,3.734l-55.645,0l1.867,-3.734l53.778,-0Z" style="fill:#fff;fill-rule:nonzero;"/><path d="M238.827,1641.28l-0,3.735c-4.233,0.124 -7.438,0.591 -9.617,1.4c-2.178,0.809 -3.641,2.303 -4.388,4.482c-0.747,2.178 -1.12,5.571 -1.12,10.176l-0,94.112c-0,3.984 0.342,7.002 1.027,9.057c0.685,2.054 1.961,3.392 3.828,4.014c1.867,0.623 4.544,0.934 8.029,0.934l10.644,-0c4.855,-0 9.118,-0.872 12.791,-2.614c3.672,-1.743 6.878,-4.295 9.616,-7.656c2.739,-3.361 4.98,-7.501 6.723,-12.418c1.742,-4.917 2.987,-10.488 3.734,-16.712l4.295,-0c-0.373,4.108 -0.56,9.461 -0.56,16.059c-0,2.738 0.093,6.66 0.28,11.764c0.187,5.104 0.529,10.394 1.027,15.872c-6.349,-0.249 -13.507,-0.405 -21.474,-0.467c-7.967,-0.062 -15.063,-0.094 -21.287,-0.094l-11.391,0c-4.606,0 -9.616,0.032 -15.031,0.094c-5.416,0.062 -10.893,0.124 -16.433,0.187c-5.539,0.062 -10.799,0.155 -15.778,0.28l-0,-3.735c4.108,-0.249 7.189,-0.747 9.243,-1.494c2.054,-0.747 3.423,-2.241 4.108,-4.481c0.685,-2.241 1.027,-5.602 1.027,-10.084l-0,-92.618c-0,-4.605 -0.342,-7.998 -1.027,-10.176c-0.685,-2.179 -2.054,-3.673 -4.108,-4.482c-2.054,-0.809 -5.135,-1.276 -9.243,-1.4l-0,-3.735c3.112,0.125 7.096,0.249 11.95,0.374c4.855,0.124 10.084,0.186 15.686,0.186c5.104,0 10.145,-0.062 15.125,-0.186c4.979,-0.125 9.087,-0.249 12.324,-0.374Z" style="fill:#fff;fill-rule:nonzero;"/><path d="M450.018,1641.28c-0.498,5.104 -0.84,10.052 -1.027,14.845c-0.187,4.793 -0.28,8.434 -0.28,10.924c-0,2.365 0.062,4.637 0.187,6.815c0.124,2.179 0.249,4.015 0.373,5.509l-4.295,-0c-0.996,-8.59 -2.614,-15.343 -4.855,-20.26c-2.24,-4.917 -5.259,-8.403 -9.056,-10.457c-3.797,-2.054 -8.745,-3.081 -14.845,-3.081l-10.27,-0c-3.735,-0 -6.598,0.311 -8.59,0.934c-1.992,0.622 -3.33,1.929 -4.014,3.921c-0.685,1.992 -1.027,5.042 -1.027,9.15l-0,95.605c-0,3.984 0.342,7.002 1.027,9.057c0.684,2.054 2.022,3.392 4.014,4.014c1.992,0.623 4.855,0.934 8.59,0.934l10.643,-0c6.349,-0 11.671,-1.183 15.966,-3.548c4.295,-2.365 7.749,-6.255 10.363,-11.671c2.614,-5.415 4.544,-12.853 5.789,-22.314l4.295,0c-0.374,3.859 -0.561,8.839 -0.561,14.939c0,2.614 0.094,6.411 0.281,11.39c0.186,4.98 0.529,10.146 1.027,15.499c-6.349,-0.249 -13.507,-0.405 -21.474,-0.467c-7.967,-0.062 -15.063,-0.094 -21.287,-0.094l-11.298,0c-4.668,0 -9.71,0.032 -15.125,0.094c-5.415,0.062 -10.892,0.124 -16.432,0.187c-5.54,0.062 -10.799,0.155 -15.779,0.28l0,-3.735c4.109,-0.249 7.19,-0.747 9.244,-1.494c2.054,-0.747 3.423,-2.241 4.108,-4.481c0.684,-2.241 1.027,-5.602 1.027,-10.084l-0,-92.618c-0,-4.605 -0.343,-7.998 -1.027,-10.176c-0.685,-2.179 -2.054,-3.673 -4.108,-4.482c-2.054,-0.809 -5.135,-1.276 -9.244,-1.4l0,-3.735c4.98,0.125 10.239,0.218 15.779,0.28c5.54,0.063 11.017,0.125 16.432,0.187c5.415,0.062 10.457,0.093 15.125,0.093l11.298,0c5.726,0 12.23,-0.031 19.513,-0.093c7.282,-0.062 13.787,-0.218 19.513,-0.467Zm-30.063,63.862l-0,3.734l-33.238,0l-0,-3.734l33.238,-0Zm5.415,-24.649c-0.498,7.096 -0.716,12.511 -0.654,16.246c0.062,3.734 0.094,7.158 0.094,10.27c-0,3.112 0.062,6.535 0.186,10.27c0.125,3.735 0.436,9.15 0.934,16.246l-4.295,-0c-0.622,-4.233 -1.587,-8.248 -2.894,-12.045c-1.307,-3.796 -3.361,-6.846 -6.162,-9.149c-2.801,-2.303 -6.816,-3.455 -12.044,-3.455l-0,-3.734c3.859,-0 7.002,-0.81 9.43,-2.428c2.427,-1.618 4.388,-3.703 5.881,-6.255c1.494,-2.552 2.646,-5.229 3.455,-8.03c0.809,-2.801 1.4,-5.446 1.774,-7.936l4.295,0Z" style="fill:#fff;fill-rule:nonzero;"/><path d="M514.253,1808.59l-0,-3.735c5.104,-0.249 9.492,-1.618 13.164,-4.108c3.673,-2.49 6.443,-6.722 8.31,-12.697c1.867,-5.976 2.801,-14.13 2.801,-24.462l-0,-102.515c-0,-4.605 -0.343,-7.998 -1.027,-10.176c-0.685,-2.179 -2.085,-3.673 -4.202,-4.482c-2.116,-0.809 -5.166,-1.276 -9.149,-1.4l-0,-3.735c2.863,0.125 6.691,0.249 11.483,0.374c4.793,0.124 9.804,0.186 15.032,0.186c5.229,0 10.364,-0.062 15.405,-0.186c5.042,-0.125 9.181,-0.249 12.418,-0.374l-0,3.735c-4.108,0.124 -7.189,0.591 -9.243,1.4c-2.054,0.809 -3.424,2.303 -4.108,4.482c-0.685,2.178 -1.027,5.571 -1.027,10.176l-0,68.343c-0,5.104 -0.031,10.644 -0.094,16.619c-0.062,5.976 -0.311,11.764 -0.747,17.366c-0.435,5.602 -1.213,10.519 -2.334,14.752c-2.365,8.714 -7.469,15.965 -15.312,21.754c-7.842,5.788 -18.299,8.683 -31.37,8.683Z" style="fill:#fff;fill-rule:nonzero;"/><path d="M703.597,1640.72l45.375,117.079c1.867,4.482 3.89,7.563 6.069,9.243c2.178,1.681 4.201,2.584 6.068,2.708l0,3.735c-3.236,-0.249 -7.127,-0.405 -11.67,-0.467c-4.544,-0.062 -9.181,-0.094 -13.912,-0.094c-5.477,0 -10.581,0.032 -15.311,0.094c-4.731,0.062 -8.59,0.218 -11.578,0.467l0,-3.735c6.349,-0.249 10.395,-1.338 12.138,-3.268c1.743,-1.929 1.369,-6.068 -1.121,-12.417l-32.864,-88.697l3.361,-4.108l-29.877,77.493c-2.365,6.224 -3.796,11.328 -4.294,15.312c-0.498,3.983 -0.187,7.095 0.933,9.336c1.121,2.241 2.988,3.828 5.602,4.762c2.614,0.933 5.851,1.463 9.71,1.587l0,3.735c-3.984,-0.249 -7.843,-0.405 -11.577,-0.467c-3.735,-0.062 -7.469,-0.094 -11.204,-0.094c-2.739,0 -5.322,0.032 -7.749,0.094c-2.428,0.062 -4.575,0.218 -6.442,0.467l-0,-3.735c2.738,-0.622 5.446,-2.241 8.122,-4.855c2.677,-2.614 5.26,-7.158 7.75,-13.631l42.761,-110.544c1.493,0.124 3.112,0.187 4.855,0.187c1.742,-0 3.361,-0.063 4.855,-0.187Zm16.245,78.987l0,3.734l-55.645,0l1.867,-3.734l53.778,-0Z" style="fill:#fff;fill-rule:nonzero;"/><path d="M940.183,1641.28l-0,3.735c-3.984,0.373 -7.034,1.276 -9.15,2.707c-2.116,1.432 -3.517,3.673 -4.201,6.723c-0.685,3.05 -1.027,7.375 -1.027,12.977l-0,106.623c-1.121,-0.125 -2.334,-0.187 -3.642,-0.187c-1.307,0 -2.707,0.062 -4.201,0.187l-80.107,-108.863l0,80.667c0,5.975 0.374,10.612 1.12,13.911c0.747,3.299 2.397,5.664 4.949,7.096c2.552,1.431 6.442,2.396 11.67,2.894l0,3.735c-2.365,-0.249 -5.415,-0.405 -9.149,-0.467c-3.735,-0.062 -7.283,-0.094 -10.644,-0.094c-2.988,0 -6.006,0.032 -9.056,0.094c-3.05,0.062 -5.571,0.218 -7.563,0.467l0,-3.735c4.108,-0.498 7.189,-1.432 9.243,-2.801c2.054,-1.369 3.424,-3.61 4.108,-6.722c0.685,-3.112 1.027,-7.407 1.027,-12.884l0,-86.27c0,-4.605 -0.342,-7.998 -1.027,-10.176c-0.684,-2.179 -2.054,-3.673 -4.108,-4.482c-2.054,-0.809 -5.135,-1.276 -9.243,-1.4l0,-3.735c1.992,0.125 4.513,0.249 7.563,0.374c3.05,0.124 6.068,0.186 9.056,0.186c2.863,0 5.664,-0.062 8.403,-0.186c2.739,-0.125 5.166,-0.249 7.282,-0.374l70.024,93.178l-0,-65.542c-0,-6.1 -0.374,-10.768 -1.121,-14.005c-0.746,-3.236 -2.365,-5.601 -4.854,-7.095c-2.49,-1.494 -6.412,-2.428 -11.764,-2.801l-0,-3.735c2.365,0.125 5.446,0.249 9.243,0.374c3.797,0.124 7.313,0.186 10.55,0.186c3.112,0 6.193,-0.062 9.243,-0.186c3.05,-0.125 5.509,-0.249 7.376,-0.374Z" style="fill:#fff;fill-rule:nonzero;"/><path d="M1064.17,1641.28c23.902,0 41.61,5.571 53.125,16.712c11.515,11.142 17.272,27.107 17.272,47.897c0,13.569 -2.832,25.426 -8.496,35.572c-5.664,10.145 -13.849,18.019 -24.555,23.621c-10.706,5.602 -23.715,8.403 -39.026,8.403c-1.868,-0 -4.389,-0.063 -7.563,-0.187c-3.174,-0.125 -6.473,-0.218 -9.897,-0.28c-3.423,-0.062 -6.566,-0.094 -9.429,-0.094c-5.104,0 -10.084,0.032 -14.939,0.094c-4.855,0.062 -8.838,0.218 -11.95,0.467l-0,-3.735c4.108,-0.249 7.189,-0.747 9.243,-1.494c2.054,-0.747 3.423,-2.241 4.108,-4.481c0.684,-2.241 1.027,-5.602 1.027,-10.084l-0,-92.618c-0,-4.605 -0.343,-7.998 -1.027,-10.176c-0.685,-2.179 -2.054,-3.673 -4.108,-4.482c-2.054,-0.809 -5.135,-1.276 -9.243,-1.4l-0,-3.735c3.112,0.125 7.095,0.28 11.95,0.467c4.855,0.187 9.71,0.218 14.565,0.093c4.482,-0.124 9.523,-0.249 15.125,-0.373c5.602,-0.125 10.208,-0.187 13.818,-0.187Zm-1.68,3.361c-5.727,0 -9.461,1.058 -11.204,3.175c-1.743,2.116 -2.614,6.411 -2.614,12.884l-0,93.365c-0,6.473 0.902,10.768 2.707,12.884c1.805,2.116 5.571,3.174 11.297,3.174c11.578,0 20.634,-2.458 27.169,-7.375c6.536,-4.918 11.142,-12.107 13.818,-21.568c2.677,-9.461 4.015,-20.976 4.015,-34.545c0,-13.942 -1.463,-25.488 -4.388,-34.638c-2.925,-9.15 -7.687,-15.996 -14.285,-20.54c-6.598,-4.544 -15.436,-6.816 -26.515,-6.816Z" style="fill:#fff;fill-rule:nonzero;"/><path d="M1204.59,1641.28c3.112,0.125 7.095,0.249 11.95,0.374c4.855,0.124 9.71,0.186 14.565,0.186c6.1,0 11.889,-0.062 17.366,-0.186c5.478,-0.125 9.337,-0.187 11.577,-0.187c11.204,-0 20.447,1.338 27.73,4.015c7.282,2.676 12.728,6.442 16.339,11.297c3.61,4.855 5.415,10.581 5.415,17.179c-0,4.108 -0.809,8.309 -2.428,12.604c-1.618,4.295 -4.419,8.247 -8.403,11.857c-3.983,3.61 -9.429,6.567 -16.338,8.87c-6.909,2.303 -15.717,3.455 -26.423,3.455l-17.926,-0l0,-3.735l16.059,-0c7.843,-0 13.849,-1.401 18.019,-4.201c4.171,-2.801 6.972,-6.536 8.403,-11.204c1.432,-4.668 2.148,-9.866 2.148,-15.592c-0,-9.835 -1.93,-17.459 -5.789,-22.875c-3.859,-5.415 -10.519,-8.122 -19.98,-8.122c-5.104,-0 -8.434,1.058 -9.99,3.174c-1.556,2.116 -2.334,6.411 -2.334,12.884l-0,92.618c-0,4.482 0.373,7.843 1.12,10.084c0.747,2.24 2.148,3.734 4.202,4.481c2.054,0.747 5.072,1.245 9.056,1.494l-0,3.735c-3.112,-0.249 -7.096,-0.405 -11.951,-0.467c-4.855,-0.062 -9.772,-0.094 -14.751,-0.094c-5.602,0 -10.831,0.032 -15.686,0.094c-4.855,0.062 -8.838,0.218 -11.95,0.467l-0,-3.735c4.108,-0.249 7.189,-0.747 9.243,-1.494c2.054,-0.747 3.423,-2.241 4.108,-4.481c0.685,-2.241 1.027,-5.602 1.027,-10.084l-0,-92.618c-0,-4.605 -0.342,-7.998 -1.027,-10.176c-0.685,-2.179 -2.054,-3.673 -4.108,-4.482c-2.054,-0.809 -5.135,-1.276 -9.243,-1.4l-0,-3.735Zm33.424,66.289c5.851,0.249 10.737,0.529 14.659,0.84c3.921,0.312 7.282,0.592 10.083,0.841c2.801,0.249 5.322,0.56 7.562,0.933c10.333,0.996 17.958,3.393 22.875,7.189c4.917,3.797 8.185,9.555 9.803,17.273l4.295,19.233c1.12,5.104 2.334,8.745 3.641,10.924c1.307,2.178 3.206,3.205 5.695,3.081c1.743,-0 3.237,-0.467 4.482,-1.401c1.245,-0.933 2.49,-2.209 3.734,-3.828l2.615,2.241c-3.112,3.859 -6.411,6.691 -9.897,8.496c-3.486,1.805 -7.905,2.708 -13.258,2.708c-5.975,-0 -11.017,-1.401 -15.125,-4.202c-4.108,-2.801 -6.909,-8.122 -8.403,-15.965l-3.548,-18.673c-0.995,-5.228 -2.147,-9.834 -3.454,-13.818c-1.307,-3.983 -3.081,-7.096 -5.322,-9.336c-2.241,-2.241 -5.539,-3.361 -9.896,-3.361l-20.167,-0l-0.374,-3.175Z" style="fill:#fff;fill-rule:nonzero;"/><path d="M1452.76,1638.66c12.698,-0 23.839,2.676 33.425,8.029c9.585,5.353 17.023,13.04 22.314,23.061c5.291,10.022 7.936,22.19 7.936,36.506c-0,13.942 -2.708,26.142 -8.123,36.599c-5.415,10.457 -12.946,18.611 -22.594,24.462c-9.648,5.85 -20.696,8.776 -33.145,8.776c-12.697,-0 -23.839,-2.677 -33.424,-8.03c-9.586,-5.352 -17.024,-13.071 -22.314,-23.154c-5.291,-10.083 -7.936,-22.221 -7.936,-36.412c-0,-13.943 2.738,-26.142 8.216,-36.599c5.477,-10.457 13.009,-18.611 22.594,-24.462c9.585,-5.851 20.603,-8.776 33.051,-8.776Zm-0.747,3.361c-7.344,0 -13.724,2.801 -19.14,8.403c-5.415,5.602 -9.616,13.32 -12.604,23.154c-2.987,9.835 -4.481,21.225 -4.481,34.172c-0,13.195 1.68,24.679 5.041,34.451c3.362,9.773 7.905,17.304 13.632,22.595c5.726,5.29 12.013,7.936 18.859,7.936c7.345,-0 13.725,-2.801 19.14,-8.403c5.415,-5.602 9.617,-13.351 12.604,-23.248c2.988,-9.897 4.482,-21.256 4.482,-34.078c-0,-13.32 -1.681,-24.835 -5.042,-34.545c-3.361,-9.71 -7.874,-17.21 -13.538,-22.501c-5.664,-5.291 -11.982,-7.936 -18.953,-7.936Z" style="fill:#fff;fill-rule:nonzero;"/></g></g></svg>